<svg xmlns="http://www.w3.org/2000/svg" viewBox="0 0 128 128" role="img" aria-labelledby="title description">
  <title id="title">Biomed Workbench mark</title>
  <desc id="description">Four scientific evidence paths converge on a central research decision.</desc>
  <rect width="128" height="128" rx="18" fill="#172126"/>
  <path d="M25 31h24c8 0 15 7 15 15v18" fill="none" stroke="#36A58B" stroke-width="10" stroke-linecap="round"/>
  <path d="M103 31H79c-8 0-15 7-15 15v18" fill="none" stroke="#E05A47" stroke-width="10" stroke-linecap="round"/>
  <path d="M25 97h24c8 0 15-7 15-15V64" fill="none" stroke="#4388C7" stroke-width="10" stroke-linecap="round"/>
  <path d="M103 97H79c-8 0-15-7-15-15V64" fill="none" stroke="#E5B849" stroke-width="10" stroke-linecap="round"/>
  <circle cx="64" cy="64" r="16" fill="#F7FAF9"/>
  <path d="M57 55v18M57 55h7c5 0 8 2 8 6 0 3-2 5-5 5H57m10 0c4 0 7 2 7 6 0 5-4 7-10 7h-7" fill="none" stroke="#172126" stroke-width="4" stroke-linecap="round" stroke-linejoin="round"/>
  <circle cx="25" cy="31" r="5" fill="#F7FAF9"/>
  <circle cx="103" cy="31" r="5" fill="#F7FAF9"/>
  <circle cx="25" cy="97" r="5" fill="#F7FAF9"/>
  <circle cx="103" cy="97" r="5" fill="#F7FAF9"/>
</svg>
